<svg width="69" height="68" viewBox="0 0 69 68" fill="none" xmlns="http://www.w3.org/2000/svg">
<rect x="0.666504" width="68" height="68" rx="10" fill="#D9D9D9"/>
<path d="M34.6665 16.6458V9.20831L24.7498 19.125L34.6665 29.0416V21.6041C42.8725 21.6041 49.5415 28.2731 49.5415 36.4791C49.5415 43.8423 44.1617 49.941 37.1457 51.131V56.1389C46.9384 54.9242 54.4998 46.5942 54.4998 36.4791C54.4998 25.5212 45.6244 16.6458 34.6665 16.6458ZM19.7915 36.4791C19.7915 32.3885 21.4525 28.6698 24.1548 25.9675L20.6344 22.4471C17.0644 26.0419 14.8332 31.0002 14.8332 36.4791C14.8332 46.5942 22.3946 54.9242 32.1873 56.1389V51.131C25.1713 49.941 19.7915 43.8423 19.7915 36.4791Z" fill="black"/>
</svg>
